# xmcd
#
# Track frame offsets:
#	150
#	7307
#	19770
#	28235
#	39722
#	50400
#	65580
#	75050
#	89472
#	98062
#	105387
#	115170
#	126165
#	141543
#
# Disc length: 2028 seconds
#
# Revision: 1
# Processed by: cddbd v1.5.1PL0 Copyright (c) Steve Scherf et al.
# Submitted via: EasyCDDAExtractor 5.0.6
#
DISCID=b907ea0e
DTITLE=The Hives - Venividivicious
DYEAR=2002
DGENRE=Punk
TTITLE0=The Hives Declare Guerre Nucleare
TTITLE1=Die, All Right!
TTITLE2=A Get Together To Tear It Apart
TTITLE3=Main Offender
TTITLE4=Outsmarted
TTITLE5=Hate To Say I Told You So
TTITLE6=The Hives Introduce The Metric System In Time
TTITLE7=Find Another Girl
TTITLE8=State Of Control
TTITLE9=Inspection Wise 1999
TTITLE10=Knock Knock
TTITLE11=Supply And Demand
TTITLE12=Lost And Found
TTITLE13=Howlin Pelle Talks To The Kids
EXTD=
EXTT0=
EXTT1=
EXTT2=
EXTT3=
EXTT4=
EXTT5=
EXTT6=
EXTT7=
EXTT8=
EXTT9=
EXTT10=
EXTT11=
EXTT12=
EXTT13=
PLAYORDER=
